# xmcd
#
# Track frame offsets:
#	150
#	20294
#	49365
#	66838
#	89184
#	107641
#	129754
#	152382
#	179388
#	200490
#	220310
#	245997
#	275045
#	278289
#	294364
#	312581
#
# Disc length: 4513 seconds
# Revision: 0
# Processed by: cddbd v1.5.2PL0 Copyright (c) Steve Scherf et al.
# Submitted via: dBpowerAMP V12.0
#
DISCID=f1119f10
DTITLE=John Verity Band - Live!!!
DYEAR=2012
DGENRE=Blues
TTITLE0=I Got To Find My Baby
TTITLE1=Don't Answwer The Door
TTITLE2=Looking Back
TTITLE3=Black Magic Woman
TTITLE4=Rocky Mountain Way
TTITLE5=Down The Road
TTITLE6=Cocaine
TTITLE7=Prove Your Love
TTITLE8=Bad Case Of Loving You
TTITLE9=Hoochie Coochie Man
TTITLE10=Old Time Rock and Roll
TTITLE11=Purple Haze
TTITLE12=Ooops!
TTITLE13=Too Hot To Hug
TTITLE14=Hold Your Head Up
TTITLE15=Need Your Love So Bad
EXTD=
EXTT0=
EXTT1=
EXTT2=
EXTT3=
EXTT4=
EXTT5=
EXTT6=
EXTT7=
EXTT8=
EXTT9=
EXTT10=
EXTT11=
EXTT12=
EXTT13=
EXTT14=
EXTT15=
PLAYORDER=
